<mxfile host="app.diagrams.net">
  <diagram name="Activity Diagram">
    <mxGraphModel dx="982" dy="579" grid="1" gridSize="10" guides="1" tooltips="1" connect="1" arrows="1" fold="1" page="1" pageScale="1" pageWidth="827" pageHeight="1169" math="0" shadow="0">
      <root>
        <mxCell id="0" />
        <mxCell id="1" parent="0" />
        <mxCell id="2" value="Activity Diagram" style="text;html=1;strokeColor=none;fillColor=none;fontSize=16;fontStyle=1;" vertex="1" parent="1">
          <mxGeometry x="30" y="10" width="120" height="30" as="geometry" />
        </mxCell>
        <mxCell id="3" value="ADMIN" style="swimlane;fontSize=14;fillColor=#ffffff;" vertex="1" parent="1">
          <mxGeometry x="10" y="50" width="220" height="560" as="geometry" />
        </mxCell>
        <mxCell id="4" value="LABOUR/ JOB SEEKER" style="swimlane;fontSize=14;fillColor=#ffffff;" vertex="1" parent="1">
          <mxGeometry x="230" y="50" width="220" height="560" as="geometry" />
        </mxCell>
        <mxCell id="5" value="CUSTOMER/ COMPANY" style="swimlane;fontSize=14;fillColor=#ffffff;" vertex="1" parent="1">
          <mxGeometry x="450" y="50" width="220" height="560" as="geometry" />
        </mxCell>
        <mxCell id="6" value="Registration/&#xa;Login" style="rounded=1;whiteSpace=wrap;html=1;" vertex="1" parent="3">
          <mxGeometry x="60" y="60" width="100" height="50" as="geometry" />
        </mxCell>
        <mxCell id="7" value="User Role" style="rhombus;whiteSpace=wrap;html=1;" vertex="1" parent="3">
          <mxGeometry x="60" y="140" width="100" height="60" as="geometry" />
        </mxCell>
        <mxCell id="8" value="Job Searching" style="rounded=1;whiteSpace=wrap;html=1;" vertex="1" parent="4">
          <mxGeometry x="60" y="60" width="100" height="50" as="geometry" />
        </mxCell>
        <mxCell id="9" value="Candidate Profile" style="rounded=1;whiteSpace=wrap;html=1;" vertex="1" parent="4">
          <mxGeometry x="60" y="140" width="100" height="50" as="geometry" />
        </mxCell>
        <mxCell id="10" value="Communication &#xa;&amp; Messaging" style="rounded=1;whiteSpace=wrap;html=1;" vertex="1" parent="4">
          <mxGeometry x="60" y="220" width="100" height="50" as="geometry" />
        </mxCell>
        <mxCell id="11" value="Support &#xa;&amp; Help Desk" style="rounded=1;whiteSpace=wrap;html=1;" vertex="1" parent="4">
          <mxGeometry x="60" y="300" width="100" height="50" as="geometry" />
        </mxCell>
        <mxCell id="12" value="Job Listing" style="rounded=1;whiteSpace=wrap;html=1;" vertex="1" parent="5">
          <mxGeometry x="60" y="60" width="100" height="50" as="geometry" />
        </mxCell>
        <mxCell id="13" value="Candidate Profile" style="rounded=1;whiteSpace=wrap;html=1;" vertex="1" parent="5">
          <mxGeometry x="60" y="140" width="100" height="50" as="geometry" />
        </mxCell>
        <mxCell id="14" value="Communication &#xa;&amp; Messaging" style="rounded=1;whiteSpace=wrap;html=1;" vertex="1" parent="5">
          <mxGeometry x="60" y="220" width="100" height="50" as="geometry" />
        </mxCell>
        <mxCell id="15" value="Feedback &#xa;&amp; Reviews" style="rounded=1;whiteSpace=wrap;html=1;" vertex="1" parent="5">
          <mxGeometry x="60" y="300" width="100" height="50" as="geometry" />
        </mxCell>
        <mxCell id="16" value="Support &#xa;&amp; Help Desk" style="rounded=1;whiteSpace=wrap;html=1;" vertex="1" parent="5">
          <mxGeometry x="60" y="380" width="100" height="50" as="geometry" />
        </mxCell>
        <mxCell id="17" style="ellipse;whiteSpace=wrap;html=1;fillColor=#000000;" vertex="1" parent="3">
          <mxGeometry x="100" y="20" width="20" height="20" as="geometry" />
        </mxCell>
        <mxCell id="18" style="ellipse;whiteSpace=wrap;html=1;fillColor=#000000;" vertex="1" parent="4">
          <mxGeometry x="100" y="380" width="20" height="20" as="geometry" />
        </mxCell>
        <mxCell id="19" style="ellipse;whiteSpace=wrap;html=1;fillColor=#000000;" vertex="1" parent="5">
          <mxGeometry x="100" y="460" width="20" height="20" as="geometry" />
        </mxCell>
        <mxCell id="20" style="endArrow=block;html=1;" edge="1" parent="3" source="6" target="7">
          <mxGeometry relative="1" as="geometry" />
        </mxCell>
        <mxCell id="21" style="endArrow=block;html=1;" edge="1" parent="4" source="8" target="9">
          <mxGeometry relative="1" as="geometry" />
        </mxCell>
        <mxCell id="22" style="endArrow=block;html=1;" edge="1" parent="4" source="9" target="10">
          <mxGeometry relative="1" as="geometry" />
        </mxCell>
        <mxCell id="23" style="endArrow=block;html=1;" edge="1" parent="4" source="10" target="11">
          <mxGeometry relative="1" as="geometry" />
        </mxCell>
        <mxCell id="24" style="endArrow=block;html=1;" edge="1" parent="5" source="12" target="13">
          <mxGeometry relative="1" as="geometry" />
        </mxCell>
        <mxCell id="25" style="endArrow=block;html=1;" edge="1" parent="5" source="13" target="14">
          <mxGeometry relative="1" as="geometry" />
        </mxCell>
        <mxCell id="26" style="endArrow=block;html=1;" edge="1" parent="5" source="14" target="15">
          <mxGeometry relative="1" as="geometry" />
        </mxCell>
        <mxCell id="27" style="endArrow=block;html=1;" edge="1" parent="5" source="15" target="16">
          <mxGeometry relative="1" as="geometry" />
        </mxCell>
        <mxCell id="28" style="endArrow=block;html=1;" edge="1" parent="3" source="7" target="8">
          <mxGeometry relative="1" as="geometry" />
        </mxCell>
        <mxCell id="29" style="endArrow=block;html=1;" edge="1" parent="3" source="7" target="12">
          <mxGeometry relative="1" as="geometry" />
        </mxCell>
      </root>
    </mxGraphModel>
  </diagram>
</mxfile>
